<?xml version="1.0" encoding="utf-8"?>
<!-- Generator: Adobe Illustrator 28.0.0, SVG Export Plug-In . SVG Version: 6.00 Build 0)  -->
<svg version="1.1" id="Layer_1" xmlns="http://www.w3.org/2000/svg" xmlns:xlink="http://www.w3.org/1999/xlink" x="0px" y="0px"
	 viewBox="0 0 1100 1100" style="enable-background:new 0 0 1100 1100;" xml:space="preserve">
<style type="text/css">
	.st0{fill:#749667;}
	.st1{fill:none;}
</style>
<g>
	<path class="st0" d="M989.1,444.3c9.2-10.1,17.3-26.3,2.4-35.9c-1.1-0.7-2.3-1.3-3.6-1.8c-2,3.6-4.5,7.1-7.2,10
		c-7.2,7.9-16,15.9-16.9,26.6c-0.7,8,2.7,17.8-3.3,23c-2.5,2.1-5.7,2.6-8.8,3c-13.2,1.6-26.3,3.3-39.5,4.9
		c0.4,13.2,13.6,19,25.4,25.6c7.5-0.9,14.9-1.9,22.4-2.8c3.1-0.4,6.4-0.9,8.8-3c6-5.2,2.6-15,3.3-23
		C973.1,460.2,981.9,452.2,989.1,444.3z"/>
	<path class="st0" d="M242.6,757.8c25.5-27.7,52.3-53.7,80.1-77.9c31.1-28.3,63.8-54.2,98.1-77c27.4-18.2,55.7-35,84.3-50
		c28.9-15,59.2-28.8,90-40.9c9.1-3.6,18.3-7,27.3-10.2c22.5-8.5,44.8-16.1,66.3-22.4c37.9-11,69.4-18.2,98.8-22.6l-0.3-2
		c0,0-242.2,9.5-483.1,193.2c2.3-8.4,6.4-16.3,12.8-21.9c4.9-4.3,10.8-7.1,15.5-11.6c8.4-8,11.6-20.1,13.9-31.6
		c2.3-11.5,4-23.5,10.5-33.3c6.5-9.8,19.4-16.2,28.8-10.6c9.3,5.5,13.4,20.8,25.5,17.4c6.9-1.9,11.6-9.1,11.7-16.5
		c0.4-28.4,0.8-56.8,1.2-85.2c0.2-12.2,0.8-25.5,8.5-34.9c5.2-6.3,12.9-9.8,18-16.2c12.3-15.6,4.6-42.4,23-53.9
		c9.5-6,21.5-3.9,29.3,3.6c15.1,14.3,14.6,36.5,12,56.7c-1.5,12-3.7,24.3,0.9,35.6c2.6,6.4,7.7,11.6,14.2,13
		c16.1,3.5,27.8-16.2,33.4-32.6c11-31.9,19.3-64.8,24.8-98c2.6-16,6.5-34.8,20.7-41.6c10-4.8,22.9-1.9,31.2-9.7
		c5.5-5.1,7-13.3,10.5-20c6.5-12.6,21-20.2,34-17.9c13,2.3,23.5,14.4,24.5,28.4c0.8,10-2.8,19.9-6.3,29.4l-20.6,55.9
		c-3.6,9.7-2.4,20.9,4.2,28c12.7,13.6,32.5-0.4,43.1-15c9.6-13.3,17.5-28,23.2-43.5c2.4-6.5,6.5-12.3,12.5-15.4
		c9.9-5.2,14.9,1.8,21.3,5.6c9.9,5.8,23.9,3,31.7-6.3c4.5-5.3,6.9-12.1,11.2-17.6c0.2-0.2,0.4-0.5,0.6-0.7
		c-72.9-82.8-179.6-135.2-298.6-135.2c-219.7,0-397.8,178.1-397.8,397.9c0,90.3,30.2,173.4,80.9,240.2
		C223.7,779.2,233,768.4,242.6,757.8z"/>
	<path class="st0" d="M882.7,357.3c3-9.9,6.1-19.9,4.4-29.7c-1-6.1-4.1-11.6-8.3-15.7c-2.3,16.4-12.3,33.2-8,48.9
		C870.9,360.7,876.5,359.1,882.7,357.3z"/>
	<path class="st0" d="M953.9,532.3c-1,2.7-2.3,5.3-3.6,7.9c-2.5,4.9-5.3,10.1-10,12.5c-14.7,7.6-31.7-17.5-44.8-7.2
		c-5.2,4-6.3,11.7-10.3,17c-5.6,7.2-15.8,8.5-24,5.8c-8.2-2.6-15-8.2-22.2-12.8c-15.7-9.9-34.2-15.1-52.8-14.8
		c-8.7,0.1-17.2,5.3-20.9,13.8c-6.9,15.5,6.6,27.5,18.5,35.4c11.4,7.5,22.8,15.1,34.1,22.6c10.3,6.8,20.7,13.8,28.5,23.6
		c9.6,12.2,14.6,29.7,6.2,45.1c-3.5,6.4-9.4,11.3-16.1,12.9c-14.2,3.3-22.6-8-32.5-15.3c-8-5.8-20.9-8.2-26.9,0.5
		c-2.9,4.2-3.2,9.7-5.7,14.1c-4.8,8.5-16.4,10.2-24.7,6.5c-8.3-3.7-14.3-11.3-20.3-18.3c-23.5-27.1-52.8-48.5-85.5-62.2
		c-6.5-2.7-13.8-3.8-20.8-2.2c-26.7,5.9-26.8,37.2-15.7,56.1c9.2,15.5,23.7,26.7,32.7,42.4c2.1,3.7,10.9,18.7,3,30.4
		c-9.8,14.7-37.2,16.5-48.4,4.2c-4.9-5.4-9.4-15-16.1-11.8c-2.7,1.3-4.2,4.5-6,7c-7.3,10.1-21.9,11-32.2,5.6
		c-10.3-5.5-17.3-15.7-24.3-25.3c-15.7-21.7-32.8-42.3-51.1-61.5c-4.9-5.1-11.2-10.6-18.1-8.5c-7.3,2.1-10.6,11.6-10.2,19.4
		s3.2,15.4,2.8,23.3c-0.8,15.3-15.7,28.7-30,27.1c-16-1.8-29.2-18.9-44.9-13.9c-8.4,2.7-14.2,11.1-22.3,14.6
		c-11.6,5.2-19.9-0.8-25.5-11.1c-18.8,18.3-36.9,37.5-54.5,57.5c-10.2,11.9-19.8,24.1-29,36.5c0.1,0.1,0.1,0.1,0.2,0.2
		c-1.3,1.6-2.6,3.2-3.9,4.8c-16.1,22.1-30.9,45-45,68.5c0.3,1.1,0.6,2.2,0.9,3.4c1.1,5.2,5,7.7,9.6,8.8c9.4,2.2,19.1-2.3,24.1-10.6
		c2.6-4.2,5.1-8.5,7.6-12.8c12.5-21.1,40.7-26,59.9-10.7c68.1,54.5,154.4,87.1,248.3,87.1c210.6,0,382.8-163.6,396.8-370.6
		c6.9,3.5,13.8,6.6,20.3,3.2c4.7-2.4,7.5-7.6,10-12.5c3.1-6.2,6.3-12.8,5.7-19.5C963.6,541.3,959.4,536.4,953.9,532.3z"/>
</g>
<polygon class="st1" points="2138.7,2250 2143.3,2250 2143.3,2250 "/>
</svg>
