<?xml version="1.0" encoding="utf-8"?>
<!-- Generator: Adobe Illustrator 28.0.0, SVG Export Plug-In . SVG Version: 6.00 Build 0)  -->
<svg version="1.1" id="Layer_1" xmlns="http://www.w3.org/2000/svg" xmlns:xlink="http://www.w3.org/1999/xlink" x="0px" y="0px"
	 viewBox="0 0 4433.62 1163.15" style="enable-background:new 0 0 4433.62 1163.15;" xml:space="preserve">
<style type="text/css">
	.st0{fill:#739767;}
	.st1{fill:#749667;}
	.st2{font-family:'AvenirNext-DemiBold';}
	.st3{font-size:850px;}
	.st4{fill:#58595B;}
	.st5{font-family:'AvenirNext-UltraLight';}
	.st6{font-size:300px;}
</style>
<g>
	<path class="st0" d="M855.37,292.12c9.2-10.1,17.27-26.26,2.41-35.91c-1.13-0.73-2.34-1.32-3.56-1.84
		c-1.95,3.64-4.5,7.08-7.16,10.01c-7.19,7.9-15.97,15.94-16.91,26.63c-0.71,8,2.66,17.75-3.34,22.95c-2.45,2.12-5.74,2.59-8.83,2.97
		c-13.15,1.63-26.31,3.26-39.46,4.88c0.42,13.2,13.57,18.96,25.36,25.63c7.47-0.92,14.94-1.85,22.41-2.77
		c3.09-0.38,6.38-0.85,8.83-2.97c6-5.2,2.63-14.95,3.34-22.95C839.4,308.06,848.18,300.02,855.37,292.12z"/>
	<path class="st0" d="M108.89,605.66c25.53-27.7,52.33-53.69,80.13-77.87c31.05-28.26,63.8-54.16,98.14-77.05
		c27.36-18.22,55.72-35.04,84.28-49.99c28.88-14.99,59.18-28.75,90.04-40.9c9.15-3.59,18.26-6.97,27.34-10.23
		c22.53-8.51,44.75-16.07,66.32-22.4c37.86-11.05,69.37-18.24,98.79-22.59l-0.34-1.98c0,0-242.24,9.46-483.08,193.16
		c2.26-8.43,6.42-16.27,12.84-21.88c4.87-4.26,10.78-7.06,15.46-11.56c8.35-8.01,11.65-20.13,13.91-31.62
		c2.26-11.49,4.05-23.54,10.51-33.29c6.45-9.75,19.37-16.16,28.8-10.6c9.26,5.45,13.36,20.75,25.55,17.4
		c6.93-1.9,11.58-9.09,11.68-16.55c0.41-28.39,0.82-56.78,1.22-85.17c0.18-12.17,0.77-25.54,8.54-34.93
		c5.2-6.29,12.94-9.81,18-16.23c12.29-15.62,4.62-42.4,22.96-53.85c9.54-5.96,21.45-3.92,29.34,3.56
		c15.1,14.33,14.56,36.51,11.98,56.71c-1.53,11.98-3.65,24.29,0.94,35.63c2.58,6.39,7.68,11.61,14.18,13.01
		c16.09,3.49,27.76-16.18,33.4-32.6c10.97-31.95,19.27-64.81,24.76-98.05c2.64-15.96,6.55-34.81,20.67-41.59
		c10.04-4.82,22.89-1.87,31.16-9.67c5.46-5.15,6.97-13.29,10.46-20.05c6.49-12.58,20.98-20.2,33.99-17.86
		c13.01,2.33,23.48,14.43,24.54,28.36c0.76,9.96-2.8,19.89-6.3,29.39l-20.57,55.85c-3.57,9.68-2.4,20.85,4.24,27.96
		c12.73,13.62,32.51-0.37,43.11-14.99c9.64-13.3,17.5-27.99,23.23-43.48c2.39-6.47,6.55-12.34,12.48-15.43
		c9.91-5.17,14.93,1.79,21.33,5.55c9.89,5.81,23.86,3.05,31.72-6.26c4.47-5.3,6.93-12.14,11.21-17.61c0.2-0.25,0.43-0.46,0.64-0.71
		C623.59,52.4,516.89,0,397.85,0C178.12,0,0,178.12,0,397.85c0,90.28,30.21,173.41,80.89,240.17
		C90.02,627.03,99.34,616.23,108.89,605.66z"/>
	<path class="st0" d="M749.02,205.16c3.01-9.94,6.08-19.94,4.44-29.71c-1.03-6.1-4.1-11.59-8.34-15.72
		c-2.33,16.43-12.28,33.18-7.95,48.9C737.15,208.59,742.84,206.95,749.02,205.16z"/>
	<path class="st0" d="M820.15,380.2c-1.04,2.68-2.27,5.32-3.56,7.86c-2.47,4.88-5.26,10.07-9.96,12.5
		c-14.66,7.59-31.65-17.51-44.8-7.18c-5.16,4.05-6.26,11.69-10.34,16.95c-5.6,7.22-15.83,8.45-23.99,5.85
		c-8.16-2.6-14.98-8.21-22.25-12.78c-15.71-9.87-34.16-15.1-52.85-14.8c-8.67,0.14-17.17,5.33-20.93,13.75
		c-6.91,15.51,6.64,27.52,18.47,35.36c11.38,7.55,22.76,15.09,34.14,22.64c10.28,6.82,20.73,13.79,28.47,23.63
		c9.58,12.18,14.58,29.73,6.15,45.1c-3.49,6.37-9.37,11.32-16.11,12.89c-14.2,3.31-22.56-8.04-32.55-15.27
		c-8.03-5.81-20.86-8.19-26.89,0.46c-2.9,4.16-3.23,9.69-5.74,14.12c-4.82,8.48-16.36,10.17-24.67,6.47
		c-8.31-3.71-14.26-11.29-20.31-18.27c-23.49-27.12-52.85-48.51-85.45-62.17c-6.51-2.73-13.79-3.75-20.83-2.2
		c-26.73,5.88-26.83,37.2-15.7,56.07c9.15,15.51,23.71,26.73,32.67,42.37c2.12,3.7,10.86,18.66,2.99,30.44
		c-9.8,14.65-37.18,16.51-48.43,4.17c-4.89-5.37-9.42-15.04-16.1-11.79c-2.74,1.33-4.19,4.48-6.02,7.03
		c-7.26,10.12-21.91,11.05-32.21,5.56c-10.3-5.48-17.35-15.67-24.32-25.32c-15.7-21.71-32.79-42.26-51.13-61.49
		c-4.9-5.14-11.25-10.57-18.15-8.54c-7.29,2.14-10.57,11.56-10.18,19.41c0.39,7.85,3.17,15.38,2.76,23.27
		c-0.81,15.29-15.67,28.73-30.01,27.14c-15.95-1.78-29.24-18.88-44.87-13.89c-8.35,2.66-14.21,11.06-22.28,14.64
		c-11.64,5.16-19.86-0.82-25.53-11.07c-18.77,18.3-36.95,37.49-54.47,57.52c-10.2,11.88-19.77,24.07-28.98,36.46
		c0.06,0.06,0.11,0.13,0.16,0.2c-1.34,1.58-2.6,3.24-3.93,4.82c-16.12,22.09-30.9,44.97-45.01,68.46c0.29,1.12,0.61,2.24,0.89,3.36
		c1.09,5.22,4.98,7.66,9.61,8.75c9.36,2.2,19.1-2.35,24.09-10.57c2.57-4.24,5.11-8.49,7.64-12.78
		c12.46-21.12,40.73-26.01,59.88-10.69c68.06,54.48,154.38,87.08,248.34,87.08c210.56,0,382.81-163.61,396.82-370.62
		c6.86,3.53,13.79,6.57,20.27,3.21c4.7-2.43,7.49-7.63,9.96-12.5c3.11-6.15,6.3-12.78,5.68-19.55
		C829.94,389.18,825.71,384.28,820.15,380.2z"/>
</g>
<text transform="matrix(1 -4.650000e-03 4.650000e-03 1 753.9187 772.9752)" class="st1 st2 st3">AKSIGHT</text>
<text transform="matrix(1 0 0 1 2886.947 1019.2541)" class="st4 st5 st6">ANALYTICS</text>
<rect x="2021.73" y="2097.85" style="fill:none;" width="4.55" height="0"/>
<g style="display:none;">
</g>
</svg>
